<mxfile host="Electron" modified="2024-08-22T07:22:13.610Z" agent="Mozilla/5.0 (Macintosh; Intel Mac OS X 10_15_7) AppleWebKit/537.36 (KHTML, like Gecko) draw.io/24.6.4 Chrome/124.0.6367.207 Electron/30.0.6 Safari/537.36" etag="OQ1NaxrqsyGJZ6rGS0Nl" version="24.6.4" type="device">
  <diagram name="Page-1" id="-H_mtQnk-PTXWXPvYvuk">
    <mxGraphModel dx="8296" dy="6158" grid="1" gridSize="10" guides="1" tooltips="1" connect="1" arrows="1" fold="1" page="1" pageScale="1" pageWidth="1169" pageHeight="827" math="0" shadow="0">
      <root>
        <mxCell id="0" />
        <mxCell id="1" parent="0" />
        <mxCell id="LLsMIVY8CDGEfQFg2SyS-11" value="ЗОНА 2&amp;nbsp; &amp;nbsp; &amp;nbsp; &amp;nbsp; &amp;nbsp; &amp;nbsp; &amp;nbsp; &amp;nbsp; &amp;nbsp; &amp;nbsp; &amp;nbsp; &amp;nbsp; &amp;nbsp; &amp;nbsp; &amp;nbsp; &amp;nbsp; &amp;nbsp; &amp;nbsp; &amp;nbsp; &amp;nbsp; &amp;nbsp; &amp;nbsp; &amp;nbsp; &amp;nbsp; &amp;nbsp; &amp;nbsp; &amp;nbsp; &amp;nbsp; &amp;nbsp; &amp;nbsp; &amp;nbsp; &amp;nbsp; &amp;nbsp; &amp;nbsp; &amp;nbsp; &amp;nbsp; &amp;nbsp; &amp;nbsp; &amp;nbsp; &amp;nbsp; &amp;nbsp; &amp;nbsp; &amp;nbsp; &amp;nbsp; &amp;nbsp; &amp;nbsp; &amp;nbsp; &amp;nbsp; &amp;nbsp; &amp;nbsp; &amp;nbsp; &amp;nbsp; &amp;nbsp; &amp;nbsp; &amp;nbsp; &amp;nbsp; &amp;nbsp; &amp;nbsp; &amp;nbsp; &amp;nbsp; &amp;nbsp; &amp;nbsp; &amp;nbsp; &amp;nbsp; &amp;nbsp; &amp;nbsp; &amp;nbsp; &amp;nbsp; &amp;nbsp; &amp;nbsp; &amp;nbsp; &amp;nbsp; &amp;nbsp; &amp;nbsp; &amp;nbsp; &amp;nbsp; &amp;nbsp; &amp;nbsp; &amp;nbsp; &amp;nbsp; &amp;nbsp; &amp;nbsp; &amp;nbsp; &amp;nbsp; &amp;nbsp; &amp;nbsp; &amp;nbsp; &amp;nbsp; &amp;nbsp; &amp;nbsp; &amp;nbsp; &amp;nbsp; &amp;nbsp; &amp;nbsp; &amp;nbsp; &amp;nbsp; &amp;nbsp; &amp;nbsp; &amp;nbsp; &amp;nbsp; &amp;nbsp; &amp;nbsp; &amp;nbsp; &amp;nbsp; &amp;nbsp; &amp;nbsp; &amp;nbsp; &amp;nbsp; &amp;nbsp; &amp;nbsp; &amp;nbsp; &amp;nbsp; &amp;nbsp; &amp;nbsp; &amp;nbsp; &amp;nbsp;&amp;nbsp;&lt;div&gt;&lt;br&gt;&lt;/div&gt;&lt;div&gt;&lt;br&gt;&lt;div&gt;&lt;br&gt;&lt;/div&gt;&lt;div&gt;&lt;br&gt;&lt;/div&gt;&lt;div&gt;&lt;br&gt;&lt;/div&gt;&lt;div&gt;&lt;br&gt;&lt;/div&gt;&lt;div&gt;&lt;br&gt;&lt;/div&gt;&lt;div&gt;&lt;br&gt;&lt;/div&gt;&lt;div&gt;&lt;br&gt;&lt;/div&gt;&lt;div&gt;&lt;br&gt;&lt;/div&gt;&lt;div&gt;&lt;br&gt;&lt;/div&gt;&lt;div&gt;&lt;br&gt;&lt;/div&gt;&lt;div&gt;&lt;br&gt;&lt;/div&gt;&lt;div&gt;&lt;br&gt;&lt;/div&gt;&lt;div&gt;&lt;br&gt;&lt;/div&gt;&lt;div&gt;&lt;br&gt;&lt;/div&gt;&lt;div&gt;&lt;br&gt;&lt;/div&gt;&lt;div&gt;&lt;br&gt;&lt;/div&gt;&lt;div&gt;&lt;br&gt;&lt;/div&gt;&lt;div&gt;&lt;br&gt;&lt;/div&gt;&lt;div&gt;&lt;br&gt;&lt;/div&gt;&lt;div&gt;&lt;br&gt;&lt;/div&gt;&lt;div&gt;&lt;br&gt;&lt;/div&gt;&lt;div&gt;&lt;br&gt;&lt;/div&gt;&lt;div&gt;&lt;br&gt;&lt;/div&gt;&lt;div&gt;&lt;br&gt;&lt;/div&gt;&lt;div&gt;&lt;br&gt;&lt;/div&gt;&lt;div&gt;&lt;br&gt;&lt;/div&gt;&lt;div&gt;&lt;br&gt;&lt;/div&gt;&lt;div&gt;&lt;br&gt;&lt;/div&gt;&lt;div&gt;&lt;br&gt;&lt;/div&gt;&lt;/div&gt;&lt;div&gt;&lt;br&gt;&lt;/div&gt;&lt;div&gt;&lt;br&gt;&lt;/div&gt;&lt;div&gt;&lt;br&gt;&lt;/div&gt;&lt;div&gt;&lt;br&gt;&lt;/div&gt;&lt;div&gt;&lt;br&gt;&lt;/div&gt;&lt;div&gt;&lt;br&gt;&lt;/div&gt;&lt;div&gt;&lt;br&gt;&lt;/div&gt;&lt;div&gt;&lt;br&gt;&lt;/div&gt;&lt;div&gt;&lt;br&gt;&lt;/div&gt;&lt;div&gt;&lt;br&gt;&lt;/div&gt;&lt;div&gt;&lt;br&gt;&lt;/div&gt;&lt;div&gt;&lt;br&gt;&lt;/div&gt;&lt;div&gt;&lt;br&gt;&lt;/div&gt;" style="rounded=0;whiteSpace=wrap;html=1;fillColor=#dae8fc;strokeColor=#6c8ebf;" vertex="1" parent="1">
          <mxGeometry x="1210" y="-1130" width="870" height="680" as="geometry" />
        </mxCell>
        <mxCell id="LLsMIVY8CDGEfQFg2SyS-10" value="ЗОНА 1&amp;nbsp; &amp;nbsp; &amp;nbsp; &amp;nbsp; &amp;nbsp; &amp;nbsp; &amp;nbsp; &amp;nbsp; &amp;nbsp; &amp;nbsp; &amp;nbsp; &amp;nbsp; &amp;nbsp; &amp;nbsp; &amp;nbsp; &amp;nbsp; &amp;nbsp; &amp;nbsp; &amp;nbsp; &amp;nbsp; &amp;nbsp; &amp;nbsp; &amp;nbsp; &amp;nbsp; &amp;nbsp; &amp;nbsp; &amp;nbsp; &amp;nbsp; &amp;nbsp; &amp;nbsp; &amp;nbsp; &amp;nbsp; &amp;nbsp; &amp;nbsp; &amp;nbsp; &amp;nbsp; &amp;nbsp; &amp;nbsp; &amp;nbsp; &amp;nbsp; &amp;nbsp; &amp;nbsp; &amp;nbsp; &amp;nbsp; &amp;nbsp; &amp;nbsp; &amp;nbsp; &amp;nbsp; &amp;nbsp; &amp;nbsp; &amp;nbsp; &amp;nbsp; &amp;nbsp; &amp;nbsp; &amp;nbsp; &amp;nbsp; &amp;nbsp; &amp;nbsp; &amp;nbsp; &amp;nbsp; &amp;nbsp; &amp;nbsp; &amp;nbsp; &amp;nbsp; &amp;nbsp; &amp;nbsp; &amp;nbsp; &amp;nbsp; &amp;nbsp; &amp;nbsp; &amp;nbsp; &amp;nbsp; &amp;nbsp; &amp;nbsp; &amp;nbsp; &amp;nbsp; &amp;nbsp; &amp;nbsp; &amp;nbsp; &amp;nbsp; &amp;nbsp; &amp;nbsp; &amp;nbsp; &amp;nbsp; &amp;nbsp; &amp;nbsp; &amp;nbsp; &amp;nbsp; &amp;nbsp; &amp;nbsp; &amp;nbsp; &amp;nbsp; &amp;nbsp; &amp;nbsp; &amp;nbsp; &amp;nbsp; &amp;nbsp; &amp;nbsp; &amp;nbsp; &amp;nbsp; &amp;nbsp; &amp;nbsp; &amp;nbsp; &amp;nbsp; &amp;nbsp; &amp;nbsp; &amp;nbsp; &amp;nbsp; &amp;nbsp; &amp;nbsp; &amp;nbsp; &amp;nbsp; &amp;nbsp; &amp;nbsp; &amp;nbsp; &amp;nbsp;&amp;nbsp;&lt;div&gt;&lt;br&gt;&lt;/div&gt;&lt;div&gt;&lt;br&gt;&lt;/div&gt;&lt;div&gt;&lt;br&gt;&lt;/div&gt;&lt;div&gt;&lt;br&gt;&lt;/div&gt;&lt;div&gt;&lt;br&gt;&lt;/div&gt;&lt;div&gt;&lt;br&gt;&lt;/div&gt;&lt;div&gt;&lt;br&gt;&lt;/div&gt;&lt;div&gt;&lt;br&gt;&lt;/div&gt;&lt;div&gt;&lt;br&gt;&lt;/div&gt;&lt;div&gt;&lt;br&gt;&lt;/div&gt;&lt;div&gt;&lt;br&gt;&lt;/div&gt;&lt;div&gt;&lt;br&gt;&lt;/div&gt;&lt;div&gt;&lt;br&gt;&lt;/div&gt;&lt;div&gt;&lt;br&gt;&lt;/div&gt;&lt;div&gt;&lt;br&gt;&lt;div&gt;&lt;br&gt;&lt;/div&gt;&lt;div&gt;&lt;br&gt;&lt;/div&gt;&lt;div&gt;&lt;br&gt;&lt;/div&gt;&lt;div&gt;&lt;br&gt;&lt;/div&gt;&lt;div&gt;&lt;br&gt;&lt;/div&gt;&lt;div&gt;&lt;br&gt;&lt;/div&gt;&lt;div&gt;&lt;br&gt;&lt;/div&gt;&lt;div&gt;&lt;br&gt;&lt;/div&gt;&lt;div&gt;&lt;br&gt;&lt;/div&gt;&lt;div&gt;&lt;br&gt;&lt;/div&gt;&lt;div&gt;&lt;br&gt;&lt;/div&gt;&lt;div&gt;&lt;br&gt;&lt;/div&gt;&lt;div&gt;&lt;br&gt;&lt;/div&gt;&lt;div&gt;&lt;br&gt;&lt;/div&gt;&lt;div&gt;&lt;br&gt;&lt;/div&gt;&lt;div&gt;&lt;br&gt;&lt;/div&gt;&lt;div&gt;&lt;br&gt;&lt;/div&gt;&lt;div&gt;&lt;br&gt;&lt;/div&gt;&lt;div&gt;&lt;br&gt;&lt;/div&gt;&lt;div&gt;&lt;br&gt;&lt;/div&gt;&lt;div&gt;&lt;br&gt;&lt;/div&gt;&lt;div&gt;&lt;br&gt;&lt;/div&gt;&lt;div&gt;&lt;br&gt;&lt;/div&gt;&lt;div&gt;&lt;br&gt;&lt;/div&gt;&lt;div&gt;&lt;br&gt;&lt;/div&gt;&lt;div&gt;&lt;br&gt;&lt;/div&gt;&lt;div&gt;&lt;br&gt;&lt;/div&gt;&lt;div&gt;&lt;br&gt;&lt;/div&gt;&lt;div&gt;&lt;br&gt;&lt;/div&gt;&lt;/div&gt;" style="rounded=0;whiteSpace=wrap;html=1;fillColor=#d5e8d4;strokeColor=#82b366;" vertex="1" parent="1">
          <mxGeometry x="260" y="-1130" width="870" height="680" as="geometry" />
        </mxCell>
        <mxCell id="st85K4Z8vBVdBcALYrPj-187" value="" style="rounded=0;whiteSpace=wrap;html=1;fillColor=#fff2cc;strokeColor=#d6b656;" parent="1" vertex="1">
          <mxGeometry x="648" y="-10" width="344.5" height="230" as="geometry" />
        </mxCell>
        <mxCell id="st85K4Z8vBVdBcALYrPj-186" value="" style="rounded=0;whiteSpace=wrap;html=1;fillColor=#fff2cc;strokeColor=#d6b656;" parent="1" vertex="1">
          <mxGeometry x="1370" y="-10" width="358" height="230" as="geometry" />
        </mxCell>
        <mxCell id="st85K4Z8vBVdBcALYrPj-108" value="pymongo-api&lt;div&gt;&lt;br&gt;&lt;/div&gt;&lt;div&gt;&lt;br&gt;&lt;/div&gt;&lt;div&gt;&lt;br&gt;&lt;/div&gt;&lt;div&gt;&lt;br&gt;&lt;/div&gt;&lt;div&gt;&lt;br&gt;&lt;/div&gt;&lt;div&gt;&lt;br&gt;&lt;/div&gt;&lt;div&gt;&lt;br&gt;&lt;/div&gt;" style="rounded=1;whiteSpace=wrap;html=1;" parent="1" vertex="1">
          <mxGeometry x="787.5" y="10" width="195" height="190" as="geometry" />
        </mxCell>
        <mxCell id="zA23MoTUsTF4_91t8viU-2" value="shard1" style="shape=cylinder3;whiteSpace=wrap;html=1;boundedLbl=1;backgroundOutline=1;size=15;" parent="1" vertex="1">
          <mxGeometry x="992.5" y="480" width="60" height="80" as="geometry" />
        </mxCell>
        <mxCell id="D9CXgukpsAMVDsTzwWb0-2" value="configSrv&lt;div&gt;&lt;br&gt;&lt;div&gt;Конфигурационный&lt;/div&gt;&lt;div&gt;сервер&lt;/div&gt;&lt;/div&gt;" style="rounded=1;whiteSpace=wrap;html=1;" parent="1" vertex="1">
          <mxGeometry x="1117.5" y="490" width="120" height="60" as="geometry" />
        </mxCell>
        <mxCell id="D9CXgukpsAMVDsTzwWb0-9" style="edgeStyle=orthogonalEdgeStyle;rounded=0;orthogonalLoop=1;jettySize=auto;html=1;entryX=0.5;entryY=0;entryDx=0;entryDy=0;exitX=0.5;exitY=1;exitDx=0;exitDy=0;startArrow=none;startFill=0;" parent="1" source="D9CXgukpsAMVDsTzwWb0-3" target="D9CXgukpsAMVDsTzwWb0-2" edge="1">
          <mxGeometry relative="1" as="geometry" />
        </mxCell>
        <mxCell id="D9CXgukpsAMVDsTzwWb0-4" value="shard2" style="shape=cylinder3;whiteSpace=wrap;html=1;boundedLbl=1;backgroundOutline=1;size=15;" parent="1" vertex="1">
          <mxGeometry x="1310" y="480" width="60" height="80" as="geometry" />
        </mxCell>
        <mxCell id="D9CXgukpsAMVDsTzwWb0-5" style="edgeStyle=orthogonalEdgeStyle;rounded=0;orthogonalLoop=1;jettySize=auto;html=1;entryX=0.5;entryY=0;entryDx=0;entryDy=0;entryPerimeter=0;startArrow=none;startFill=0;" parent="1" source="D9CXgukpsAMVDsTzwWb0-3" target="zA23MoTUsTF4_91t8viU-2" edge="1">
          <mxGeometry relative="1" as="geometry" />
        </mxCell>
        <mxCell id="D9CXgukpsAMVDsTzwWb0-6" style="edgeStyle=orthogonalEdgeStyle;rounded=0;orthogonalLoop=1;jettySize=auto;html=1;entryX=0.5;entryY=0;entryDx=0;entryDy=0;entryPerimeter=0;startArrow=none;startFill=0;" parent="1" source="D9CXgukpsAMVDsTzwWb0-3" target="D9CXgukpsAMVDsTzwWb0-4" edge="1">
          <mxGeometry relative="1" as="geometry" />
        </mxCell>
        <mxCell id="42_YZ537Ep9w2OHwn1Fl-1" value="shard1_r1" style="shape=cylinder3;whiteSpace=wrap;html=1;boundedLbl=1;backgroundOutline=1;size=15;" parent="1" vertex="1">
          <mxGeometry x="922.5" y="632" width="60" height="80" as="geometry" />
        </mxCell>
        <mxCell id="42_YZ537Ep9w2OHwn1Fl-2" value="shard1_r2" style="shape=cylinder3;whiteSpace=wrap;html=1;boundedLbl=1;backgroundOutline=1;size=15;" parent="1" vertex="1">
          <mxGeometry x="1057.5" y="632" width="60" height="80" as="geometry" />
        </mxCell>
        <mxCell id="42_YZ537Ep9w2OHwn1Fl-3" style="edgeStyle=orthogonalEdgeStyle;rounded=0;orthogonalLoop=1;jettySize=auto;html=1;entryX=0.5;entryY=0;entryDx=0;entryDy=0;entryPerimeter=0;exitX=0.5;exitY=1;exitDx=0;exitDy=0;exitPerimeter=0;" parent="1" source="zA23MoTUsTF4_91t8viU-2" target="42_YZ537Ep9w2OHwn1Fl-1" edge="1">
          <mxGeometry relative="1" as="geometry">
            <Array as="points">
              <mxPoint x="1022.5" y="602" />
              <mxPoint x="952.5" y="602" />
            </Array>
          </mxGeometry>
        </mxCell>
        <mxCell id="42_YZ537Ep9w2OHwn1Fl-4" style="edgeStyle=orthogonalEdgeStyle;rounded=0;orthogonalLoop=1;jettySize=auto;html=1;entryX=0.5;entryY=0;entryDx=0;entryDy=0;entryPerimeter=0;" parent="1" target="42_YZ537Ep9w2OHwn1Fl-2" edge="1">
          <mxGeometry relative="1" as="geometry">
            <mxPoint x="1022.5" y="562" as="sourcePoint" />
            <Array as="points">
              <mxPoint x="1022.5" y="602" />
              <mxPoint x="1087.5" y="602" />
            </Array>
          </mxGeometry>
        </mxCell>
        <mxCell id="42_YZ537Ep9w2OHwn1Fl-5" value="shard2_r1" style="shape=cylinder3;whiteSpace=wrap;html=1;boundedLbl=1;backgroundOutline=1;size=15;" parent="1" vertex="1">
          <mxGeometry x="1242.5" y="631" width="60" height="80" as="geometry" />
        </mxCell>
        <mxCell id="42_YZ537Ep9w2OHwn1Fl-6" value="shard2_r2" style="shape=cylinder3;whiteSpace=wrap;html=1;boundedLbl=1;backgroundOutline=1;size=15;" parent="1" vertex="1">
          <mxGeometry x="1377.5" y="631" width="60" height="80" as="geometry" />
        </mxCell>
        <mxCell id="42_YZ537Ep9w2OHwn1Fl-7" style="edgeStyle=orthogonalEdgeStyle;rounded=0;orthogonalLoop=1;jettySize=auto;html=1;entryX=0.5;entryY=0;entryDx=0;entryDy=0;entryPerimeter=0;exitX=0.5;exitY=1;exitDx=0;exitDy=0;exitPerimeter=0;" parent="1" target="42_YZ537Ep9w2OHwn1Fl-5" edge="1">
          <mxGeometry relative="1" as="geometry">
            <mxPoint x="1342.5" y="560" as="sourcePoint" />
            <Array as="points">
              <mxPoint x="1342.5" y="601" />
              <mxPoint x="1272.5" y="601" />
            </Array>
          </mxGeometry>
        </mxCell>
        <mxCell id="42_YZ537Ep9w2OHwn1Fl-8" style="edgeStyle=orthogonalEdgeStyle;rounded=0;orthogonalLoop=1;jettySize=auto;html=1;entryX=0.5;entryY=0;entryDx=0;entryDy=0;entryPerimeter=0;" parent="1" target="42_YZ537Ep9w2OHwn1Fl-6" edge="1">
          <mxGeometry relative="1" as="geometry">
            <mxPoint x="1342.5" y="561" as="sourcePoint" />
            <Array as="points">
              <mxPoint x="1342.5" y="601" />
              <mxPoint x="1407.5" y="601" />
            </Array>
          </mxGeometry>
        </mxCell>
        <mxCell id="42_YZ537Ep9w2OHwn1Fl-9" style="edgeStyle=orthogonalEdgeStyle;rounded=0;orthogonalLoop=1;jettySize=auto;html=1;entryX=0;entryY=0.5;entryDx=0;entryDy=0;entryPerimeter=0;" parent="1" source="D9CXgukpsAMVDsTzwWb0-2" target="D9CXgukpsAMVDsTzwWb0-4" edge="1">
          <mxGeometry relative="1" as="geometry" />
        </mxCell>
        <mxCell id="42_YZ537Ep9w2OHwn1Fl-12" style="edgeStyle=orthogonalEdgeStyle;rounded=0;orthogonalLoop=1;jettySize=auto;html=1;entryX=1;entryY=0.5;entryDx=0;entryDy=0;entryPerimeter=0;" parent="1" source="D9CXgukpsAMVDsTzwWb0-2" target="zA23MoTUsTF4_91t8viU-2" edge="1">
          <mxGeometry relative="1" as="geometry" />
        </mxCell>
        <mxCell id="D9CXgukpsAMVDsTzwWb0-3" value="&lt;div&gt;mongos_router&lt;/div&gt;&lt;div&gt;&lt;br&gt;&lt;/div&gt;Роутер" style="rounded=1;whiteSpace=wrap;html=1;" parent="1" vertex="1">
          <mxGeometry x="1117.5" y="320" width="120" height="60" as="geometry" />
        </mxCell>
        <mxCell id="D9CXgukpsAMVDsTzwWb0-8" style="edgeStyle=orthogonalEdgeStyle;rounded=0;orthogonalLoop=1;jettySize=auto;html=1;startArrow=classic;startFill=1;exitX=0.5;exitY=1;exitDx=0;exitDy=0;entryX=0.25;entryY=0;entryDx=0;entryDy=0;" parent="1" source="st85K4Z8vBVdBcALYrPj-59" target="D9CXgukpsAMVDsTzwWb0-3" edge="1">
          <mxGeometry relative="1" as="geometry">
            <mxPoint x="884.5000000000005" y="180" as="sourcePoint" />
            <mxPoint x="1148" y="310" as="targetPoint" />
          </mxGeometry>
        </mxCell>
        <mxCell id="st85K4Z8vBVdBcALYrPj-7" value="Драйвер Redis" style="rounded=1;whiteSpace=wrap;html=1;" parent="1" vertex="1">
          <mxGeometry x="834.25" y="110" width="97.5" height="30" as="geometry" />
        </mxCell>
        <mxCell id="st85K4Z8vBVdBcALYrPj-8" value="redis_1" style="shape=cylinder3;whiteSpace=wrap;html=1;boundedLbl=1;backgroundOutline=1;size=15;" parent="1" vertex="1">
          <mxGeometry x="1137" y="90" width="60" height="80" as="geometry" />
        </mxCell>
        <mxCell id="st85K4Z8vBVdBcALYrPj-9" style="edgeStyle=orthogonalEdgeStyle;rounded=0;orthogonalLoop=1;jettySize=auto;html=1;entryX=-0.026;entryY=0.428;entryDx=0;entryDy=0;entryPerimeter=0;" parent="1" source="st85K4Z8vBVdBcALYrPj-7" target="st85K4Z8vBVdBcALYrPj-8" edge="1">
          <mxGeometry relative="1" as="geometry">
            <mxPoint x="1078" y="130" as="targetPoint" />
          </mxGeometry>
        </mxCell>
        <mxCell id="st85K4Z8vBVdBcALYrPj-59" value="Драйвер Mongo" style="rounded=1;whiteSpace=wrap;html=1;" parent="1" vertex="1">
          <mxGeometry x="834.25" y="150" width="97.5" height="30" as="geometry" />
        </mxCell>
        <mxCell id="st85K4Z8vBVdBcALYrPj-155" value="pymongo-api&lt;div&gt;&lt;br&gt;&lt;/div&gt;&lt;div&gt;&lt;br&gt;&lt;/div&gt;&lt;div&gt;&lt;br&gt;&lt;/div&gt;&lt;div&gt;&lt;br&gt;&lt;/div&gt;&lt;div&gt;&lt;br&gt;&lt;/div&gt;&lt;div&gt;&lt;br&gt;&lt;/div&gt;&lt;div&gt;&lt;br&gt;&lt;/div&gt;" style="rounded=1;whiteSpace=wrap;html=1;" parent="1" vertex="1">
          <mxGeometry x="1378" y="10" width="195" height="190" as="geometry" />
        </mxCell>
        <mxCell id="st85K4Z8vBVdBcALYrPj-156" value="Драйвер Redis" style="rounded=1;whiteSpace=wrap;html=1;" parent="1" vertex="1">
          <mxGeometry x="1424.75" y="109" width="97.5" height="30" as="geometry" />
        </mxCell>
        <mxCell id="st85K4Z8vBVdBcALYrPj-161" style="edgeStyle=orthogonalEdgeStyle;rounded=0;orthogonalLoop=1;jettySize=auto;html=1;exitX=0.5;exitY=1;exitDx=0;exitDy=0;entryX=0.75;entryY=0;entryDx=0;entryDy=0;" parent="1" source="st85K4Z8vBVdBcALYrPj-157" target="D9CXgukpsAMVDsTzwWb0-3" edge="1">
          <mxGeometry relative="1" as="geometry" />
        </mxCell>
        <mxCell id="st85K4Z8vBVdBcALYrPj-157" value="Драйвер Mongo" style="rounded=1;whiteSpace=wrap;html=1;" parent="1" vertex="1">
          <mxGeometry x="1424.75" y="150" width="97.5" height="30" as="geometry" />
        </mxCell>
        <mxCell id="st85K4Z8vBVdBcALYrPj-164" value="redis_1" style="shape=cylinder3;whiteSpace=wrap;html=1;boundedLbl=1;backgroundOutline=1;size=15;" parent="1" vertex="1">
          <mxGeometry x="1143" y="100" width="60" height="80" as="geometry" />
        </mxCell>
        <mxCell id="st85K4Z8vBVdBcALYrPj-165" value="redis_1" style="shape=cylinder3;whiteSpace=wrap;html=1;boundedLbl=1;backgroundOutline=1;size=15;" parent="1" vertex="1">
          <mxGeometry x="1150" y="109" width="60" height="80" as="geometry" />
        </mxCell>
        <mxCell id="st85K4Z8vBVdBcALYrPj-166" style="edgeStyle=orthogonalEdgeStyle;rounded=0;orthogonalLoop=1;jettySize=auto;html=1;entryX=1;entryY=0;entryDx=0;entryDy=15;entryPerimeter=0;" parent="1" source="st85K4Z8vBVdBcALYrPj-156" target="st85K4Z8vBVdBcALYrPj-165" edge="1">
          <mxGeometry relative="1" as="geometry" />
        </mxCell>
        <mxCell id="st85K4Z8vBVdBcALYrPj-167" value="&lt;div style=&quot;text-align: center;&quot;&gt;&lt;span style=&quot;background-color: initial;&quot;&gt;Инстансев роутеров может быть несколько&lt;/span&gt;&lt;/div&gt;&lt;div style=&quot;text-align: center;&quot;&gt;&lt;span style=&quot;background-color: initial;&quot;&gt;Всё зависит от количества инстансов сервиса&lt;/span&gt;&lt;/div&gt;" style="text;whiteSpace=wrap;html=1;" parent="1" vertex="1">
          <mxGeometry x="1370" y="325" width="190" height="90" as="geometry" />
        </mxCell>
        <mxCell id="st85K4Z8vBVdBcALYrPj-168" value="&lt;div&gt;mongos_router&lt;/div&gt;&lt;div&gt;&lt;br&gt;&lt;/div&gt;Роутер" style="rounded=1;whiteSpace=wrap;html=1;" parent="1" vertex="1">
          <mxGeometry x="1127.5" y="330" width="120" height="60" as="geometry" />
        </mxCell>
        <mxCell id="st85K4Z8vBVdBcALYrPj-169" value="&lt;div&gt;mongos_router&lt;/div&gt;&lt;div&gt;&lt;br&gt;&lt;/div&gt;Роутер" style="rounded=1;whiteSpace=wrap;html=1;" parent="1" vertex="1">
          <mxGeometry x="1137.5" y="340" width="120" height="60" as="geometry" />
        </mxCell>
        <mxCell id="st85K4Z8vBVdBcALYrPj-170" value="&lt;div style=&quot;text-align: center;&quot;&gt;Скорей всего будем использовать кластерный редис&lt;/div&gt;&lt;div style=&quot;text-align: center;&quot;&gt;&lt;span style=&quot;background-color: initial;&quot;&gt;Всё зависит от количества инстансов сервиса&lt;/span&gt;&lt;/div&gt;" style="text;whiteSpace=wrap;html=1;" parent="1" vertex="1">
          <mxGeometry x="1072" y="-10" width="186" height="90" as="geometry" />
        </mxCell>
        <mxCell id="st85K4Z8vBVdBcALYrPj-171" value="api-gateway" style="rounded=1;whiteSpace=wrap;html=1;" parent="1" vertex="1">
          <mxGeometry x="1072" y="-340" width="161" height="80" as="geometry" />
        </mxCell>
        <mxCell id="st85K4Z8vBVdBcALYrPj-172" value="api-gateway" style="rounded=1;whiteSpace=wrap;html=1;" parent="1" vertex="1">
          <mxGeometry x="1082" y="-330" width="161" height="80" as="geometry" />
        </mxCell>
        <mxCell id="st85K4Z8vBVdBcALYrPj-173" value="api-gateway" style="rounded=1;whiteSpace=wrap;html=1;" parent="1" vertex="1">
          <mxGeometry x="1092" y="-320" width="161" height="80" as="geometry" />
        </mxCell>
        <mxCell id="st85K4Z8vBVdBcALYrPj-175" style="edgeStyle=orthogonalEdgeStyle;rounded=0;orthogonalLoop=1;jettySize=auto;html=1;entryX=0.5;entryY=0;entryDx=0;entryDy=0;exitX=0.75;exitY=1;exitDx=0;exitDy=0;startArrow=classic;startFill=1;" parent="1" source="st85K4Z8vBVdBcALYrPj-174" target="st85K4Z8vBVdBcALYrPj-155" edge="1">
          <mxGeometry relative="1" as="geometry" />
        </mxCell>
        <mxCell id="st85K4Z8vBVdBcALYrPj-176" style="edgeStyle=orthogonalEdgeStyle;rounded=0;orthogonalLoop=1;jettySize=auto;html=1;entryX=0.5;entryY=0;entryDx=0;entryDy=0;exitX=0.25;exitY=1;exitDx=0;exitDy=0;startArrow=classic;startFill=1;" parent="1" source="st85K4Z8vBVdBcALYrPj-174" target="st85K4Z8vBVdBcALYrPj-108" edge="1">
          <mxGeometry relative="1" as="geometry" />
        </mxCell>
        <mxCell id="LLsMIVY8CDGEfQFg2SyS-21" style="edgeStyle=orthogonalEdgeStyle;rounded=0;orthogonalLoop=1;jettySize=auto;html=1;entryX=0.5;entryY=0;entryDx=0;entryDy=0;exitX=0.138;exitY=0.998;exitDx=0;exitDy=0;exitPerimeter=0;startArrow=classic;startFill=1;" edge="1" parent="1" source="st85K4Z8vBVdBcALYrPj-174" target="LLsMIVY8CDGEfQFg2SyS-18">
          <mxGeometry relative="1" as="geometry">
            <Array as="points">
              <mxPoint x="1126" y="-150" />
              <mxPoint x="300" y="-150" />
            </Array>
          </mxGeometry>
        </mxCell>
        <mxCell id="st85K4Z8vBVdBcALYrPj-174" value="api-gateway&lt;div&gt;(APISIX Gateway)&lt;/div&gt;&lt;div&gt;&lt;br&gt;&lt;/div&gt;&lt;div&gt;&lt;br&gt;&lt;/div&gt;&lt;div&gt;&lt;br&gt;&lt;/div&gt;&lt;div&gt;&lt;br&gt;&lt;/div&gt;" style="rounded=1;whiteSpace=wrap;html=1;" parent="1" vertex="1">
          <mxGeometry x="1102" y="-310" width="176" height="110" as="geometry" />
        </mxCell>
        <mxCell id="st85K4Z8vBVdBcALYrPj-179" style="edgeStyle=orthogonalEdgeStyle;rounded=0;orthogonalLoop=1;jettySize=auto;html=1;entryX=0.609;entryY=-0.025;entryDx=0;entryDy=0;entryPerimeter=0;exitX=0.5;exitY=1;exitDx=0;exitDy=0;" parent="1" source="st85K4Z8vBVdBcALYrPj-178" target="st85K4Z8vBVdBcALYrPj-171" edge="1">
          <mxGeometry relative="1" as="geometry" />
        </mxCell>
        <mxCell id="st85K4Z8vBVdBcALYrPj-178" value="WEB&lt;div&gt;или&lt;/div&gt;&lt;div&gt;мобильное приложение&lt;/div&gt;" style="shape=process;whiteSpace=wrap;html=1;backgroundOutline=1;" parent="1" vertex="1">
          <mxGeometry x="834.25" y="-1010" width="191" height="100" as="geometry" />
        </mxCell>
        <mxCell id="st85K4Z8vBVdBcALYrPj-180" value="Пользователь" style="shape=umlActor;verticalLabelPosition=bottom;verticalAlign=top;html=1;outlineConnect=0;" parent="1" vertex="1">
          <mxGeometry x="909.25" y="-1110" width="30" height="60" as="geometry" />
        </mxCell>
        <mxCell id="st85K4Z8vBVdBcALYrPj-181" value="&lt;div style=&quot;text-align: center;&quot;&gt;&lt;span style=&quot;background-color: initial;&quot;&gt;Инстансев api-gateway будет нескольно&lt;/span&gt;&lt;/div&gt;&lt;div style=&quot;text-align: center;&quot;&gt;&lt;span style=&quot;background-color: initial;&quot;&gt;Реальное количество инстансев зависит от общего количества сервисов компании&lt;/span&gt;&lt;/div&gt;&lt;div style=&quot;text-align: center;&quot;&gt;&lt;span style=&quot;background-color: initial;&quot;&gt;Используем APISIX Gateway, т.к. в нём есть встроенный консул, которые будем использовать для Service Discovery&lt;/span&gt;&lt;/div&gt;" style="text;whiteSpace=wrap;html=1;" parent="1" vertex="1">
          <mxGeometry x="1288" y="-430" width="250" height="100" as="geometry" />
        </mxCell>
        <mxCell id="st85K4Z8vBVdBcALYrPj-184" style="edgeStyle=orthogonalEdgeStyle;rounded=0;orthogonalLoop=1;jettySize=auto;html=1;entryX=0;entryY=0.5;entryDx=0;entryDy=0;" parent="1" source="st85K4Z8vBVdBcALYrPj-182" target="st85K4Z8vBVdBcALYrPj-183" edge="1">
          <mxGeometry relative="1" as="geometry" />
        </mxCell>
        <mxCell id="st85K4Z8vBVdBcALYrPj-185" value="Получить список сервисов" style="edgeLabel;html=1;align=center;verticalAlign=middle;resizable=0;points=[];" parent="st85K4Z8vBVdBcALYrPj-184" vertex="1" connectable="0">
          <mxGeometry x="-0.0033" y="1" relative="1" as="geometry">
            <mxPoint as="offset" />
          </mxGeometry>
        </mxCell>
        <mxCell id="st85K4Z8vBVdBcALYrPj-182" value="consul_kv" style="rounded=0;whiteSpace=wrap;html=1;" parent="1" vertex="1">
          <mxGeometry x="1203" y="-250" width="120.5" height="40" as="geometry" />
        </mxCell>
        <mxCell id="st85K4Z8vBVdBcALYrPj-183" value="Consul" style="rounded=0;whiteSpace=wrap;html=1;" parent="1" vertex="1">
          <mxGeometry x="1648" y="-250" width="120.5" height="40" as="geometry" />
        </mxCell>
        <mxCell id="st85K4Z8vBVdBcALYrPj-191" style="edgeStyle=orthogonalEdgeStyle;rounded=0;orthogonalLoop=1;jettySize=auto;html=1;entryX=0.5;entryY=1;entryDx=0;entryDy=0;exitX=1;exitY=0.5;exitDx=0;exitDy=0;" parent="1" source="st85K4Z8vBVdBcALYrPj-188" target="st85K4Z8vBVdBcALYrPj-201" edge="1">
          <mxGeometry relative="1" as="geometry" />
        </mxCell>
        <mxCell id="st85K4Z8vBVdBcALYrPj-205" value="Регистрация сервиса" style="edgeLabel;html=1;align=center;verticalAlign=middle;resizable=0;points=[];" parent="st85K4Z8vBVdBcALYrPj-191" vertex="1" connectable="0">
          <mxGeometry x="0.3822" relative="1" as="geometry">
            <mxPoint y="-1" as="offset" />
          </mxGeometry>
        </mxCell>
        <mxCell id="st85K4Z8vBVdBcALYrPj-188" value="Сайдкар для регистрации в Consul" style="rounded=1;whiteSpace=wrap;html=1;" parent="1" vertex="1">
          <mxGeometry x="1598" y="10" width="120" height="60" as="geometry" />
        </mxCell>
        <mxCell id="st85K4Z8vBVdBcALYrPj-193" style="edgeStyle=orthogonalEdgeStyle;rounded=0;orthogonalLoop=1;jettySize=auto;html=1;entryX=0.25;entryY=1;entryDx=0;entryDy=0;exitX=0;exitY=0.5;exitDx=0;exitDy=0;" parent="1" source="st85K4Z8vBVdBcALYrPj-189" target="st85K4Z8vBVdBcALYrPj-198" edge="1">
          <mxGeometry relative="1" as="geometry" />
        </mxCell>
        <mxCell id="st85K4Z8vBVdBcALYrPj-204" value="Регистрация сервиса" style="edgeLabel;html=1;align=center;verticalAlign=middle;resizable=0;points=[];" parent="st85K4Z8vBVdBcALYrPj-193" vertex="1" connectable="0">
          <mxGeometry x="0.2818" y="-4" relative="1" as="geometry">
            <mxPoint as="offset" />
          </mxGeometry>
        </mxCell>
        <mxCell id="st85K4Z8vBVdBcALYrPj-189" value="Сайдкар для регистрации в Consul" style="rounded=1;whiteSpace=wrap;html=1;" parent="1" vertex="1">
          <mxGeometry x="658" y="15" width="120" height="60" as="geometry" />
        </mxCell>
        <mxCell id="st85K4Z8vBVdBcALYrPj-192" value="Consul" style="rounded=0;whiteSpace=wrap;html=1;" parent="1" vertex="1">
          <mxGeometry x="578" y="-280" width="120.5" height="40" as="geometry" />
        </mxCell>
        <mxCell id="st85K4Z8vBVdBcALYrPj-194" style="edgeStyle=orthogonalEdgeStyle;rounded=0;orthogonalLoop=1;jettySize=auto;html=1;entryX=1;entryY=0.5;entryDx=0;entryDy=0;exitX=0;exitY=0.5;exitDx=0;exitDy=0;" parent="1" source="st85K4Z8vBVdBcALYrPj-182" target="st85K4Z8vBVdBcALYrPj-198" edge="1">
          <mxGeometry relative="1" as="geometry">
            <mxPoint x="1334" y="-220" as="sourcePoint" />
            <mxPoint x="1658" y="-220" as="targetPoint" />
          </mxGeometry>
        </mxCell>
        <mxCell id="st85K4Z8vBVdBcALYrPj-195" value="Получить список сервисов" style="edgeLabel;html=1;align=center;verticalAlign=middle;resizable=0;points=[];" parent="st85K4Z8vBVdBcALYrPj-194" vertex="1" connectable="0">
          <mxGeometry x="-0.0033" y="1" relative="1" as="geometry">
            <mxPoint as="offset" />
          </mxGeometry>
        </mxCell>
        <mxCell id="st85K4Z8vBVdBcALYrPj-196" value="Consul" style="rounded=0;whiteSpace=wrap;html=1;" parent="1" vertex="1">
          <mxGeometry x="588" y="-270" width="120.5" height="40" as="geometry" />
        </mxCell>
        <mxCell id="st85K4Z8vBVdBcALYrPj-197" value="Consul" style="rounded=0;whiteSpace=wrap;html=1;" parent="1" vertex="1">
          <mxGeometry x="598" y="-260" width="120.5" height="40" as="geometry" />
        </mxCell>
        <mxCell id="st85K4Z8vBVdBcALYrPj-198" value="Consul" style="rounded=0;whiteSpace=wrap;html=1;" parent="1" vertex="1">
          <mxGeometry x="608" y="-250" width="120.5" height="40" as="geometry" />
        </mxCell>
        <mxCell id="st85K4Z8vBVdBcALYrPj-199" value="Consul" style="rounded=0;whiteSpace=wrap;html=1;" parent="1" vertex="1">
          <mxGeometry x="1658" y="-240" width="120.5" height="40" as="geometry" />
        </mxCell>
        <mxCell id="st85K4Z8vBVdBcALYrPj-200" value="Consul" style="rounded=0;whiteSpace=wrap;html=1;" parent="1" vertex="1">
          <mxGeometry x="1668" y="-230" width="120.5" height="40" as="geometry" />
        </mxCell>
        <mxCell id="st85K4Z8vBVdBcALYrPj-201" value="Consul" style="rounded=0;whiteSpace=wrap;html=1;" parent="1" vertex="1">
          <mxGeometry x="1678" y="-220" width="120.5" height="40" as="geometry" />
        </mxCell>
        <mxCell id="st85K4Z8vBVdBcALYrPj-203" value="&lt;div style=&quot;text-align: center;&quot;&gt;Область с жёлтой расцветкой - это под сервиса. Предположу, что для регистрации в Consul используется сайдкар, который поднимается в одном поде с контейнером сервиса. Данный сайдкар знает ip пода, имя сервиса и спокойно может зарегать его в Consul&lt;/div&gt;" style="text;whiteSpace=wrap;html=1;" parent="1" vertex="1">
          <mxGeometry x="1748" y="80" width="260" height="140" as="geometry" />
        </mxCell>
        <mxCell id="LLsMIVY8CDGEfQFg2SyS-1" value="В качестве ключа шардирования выбрано поле name, т.к. в API сервиса есть ручка, которая достаёт пользователя по его имени." style="text;html=1;align=center;verticalAlign=middle;whiteSpace=wrap;rounded=0;" vertex="1" parent="1">
          <mxGeometry x="568" y="580" width="300" height="90" as="geometry" />
        </mxCell>
        <mxCell id="LLsMIVY8CDGEfQFg2SyS-2" value="БД хранит данные по пользователям.&amp;nbsp;&lt;div&gt;Есть два поля: name и age&lt;/div&gt;&lt;div&gt;И есть скрытое поле: _id&lt;/div&gt;" style="text;html=1;align=center;verticalAlign=middle;whiteSpace=wrap;rounded=0;" vertex="1" parent="1">
          <mxGeometry x="568" y="530" width="300" height="70" as="geometry" />
        </mxCell>
        <mxCell id="LLsMIVY8CDGEfQFg2SyS-3" value="WEB&lt;div&gt;или&lt;/div&gt;&lt;div&gt;мобильное приложение&lt;/div&gt;" style="shape=process;whiteSpace=wrap;html=1;backgroundOutline=1;" vertex="1" parent="1">
          <mxGeometry x="1331.25" y="-1010" width="191" height="100" as="geometry" />
        </mxCell>
        <mxCell id="LLsMIVY8CDGEfQFg2SyS-4" value="Пользователь" style="shape=umlActor;verticalLabelPosition=bottom;verticalAlign=top;html=1;outlineConnect=0;" vertex="1" parent="1">
          <mxGeometry x="1406.25" y="-1110" width="30" height="60" as="geometry" />
        </mxCell>
        <mxCell id="LLsMIVY8CDGEfQFg2SyS-5" style="edgeStyle=orthogonalEdgeStyle;rounded=0;orthogonalLoop=1;jettySize=auto;html=1;entryX=0.609;entryY=-0.024;entryDx=0;entryDy=0;entryPerimeter=0;exitX=0.5;exitY=1;exitDx=0;exitDy=0;" edge="1" parent="1" source="LLsMIVY8CDGEfQFg2SyS-3" target="st85K4Z8vBVdBcALYrPj-171">
          <mxGeometry relative="1" as="geometry" />
        </mxCell>
        <mxCell id="LLsMIVY8CDGEfQFg2SyS-13" value="" style="rounded=0;whiteSpace=wrap;html=1;" vertex="1" parent="1">
          <mxGeometry x="328.5" y="-710" width="381.5" height="130" as="geometry" />
        </mxCell>
        <mxCell id="LLsMIVY8CDGEfQFg2SyS-16" style="edgeStyle=orthogonalEdgeStyle;rounded=0;orthogonalLoop=1;jettySize=auto;html=1;" edge="1" parent="1" source="LLsMIVY8CDGEfQFg2SyS-14" target="LLsMIVY8CDGEfQFg2SyS-15">
          <mxGeometry relative="1" as="geometry" />
        </mxCell>
        <mxCell id="LLsMIVY8CDGEfQFg2SyS-22" style="edgeStyle=orthogonalEdgeStyle;rounded=0;orthogonalLoop=1;jettySize=auto;html=1;entryX=0.25;entryY=0;entryDx=0;entryDy=0;exitX=0.5;exitY=1;exitDx=0;exitDy=0;" edge="1" parent="1" source="LLsMIVY8CDGEfQFg2SyS-14" target="st85K4Z8vBVdBcALYrPj-171">
          <mxGeometry relative="1" as="geometry" />
        </mxCell>
        <mxCell id="LLsMIVY8CDGEfQFg2SyS-14" value="CDN" style="rounded=1;whiteSpace=wrap;html=1;" vertex="1" parent="1">
          <mxGeometry x="386.5" y="-680" width="120" height="60" as="geometry" />
        </mxCell>
        <mxCell id="LLsMIVY8CDGEfQFg2SyS-15" value="КЭШ" style="shape=cylinder3;whiteSpace=wrap;html=1;boundedLbl=1;backgroundOutline=1;size=15;" vertex="1" parent="1">
          <mxGeometry x="598.5" y="-690" width="60" height="80" as="geometry" />
        </mxCell>
        <mxCell id="LLsMIVY8CDGEfQFg2SyS-17" style="edgeStyle=orthogonalEdgeStyle;rounded=0;orthogonalLoop=1;jettySize=auto;html=1;" edge="1" parent="1" source="st85K4Z8vBVdBcALYrPj-178" target="LLsMIVY8CDGEfQFg2SyS-14">
          <mxGeometry relative="1" as="geometry" />
        </mxCell>
        <mxCell id="LLsMIVY8CDGEfQFg2SyS-18" value="image-storage" style="rounded=1;whiteSpace=wrap;html=1;" vertex="1" parent="1">
          <mxGeometry x="200" y="-16" width="200" height="95" as="geometry" />
        </mxCell>
        <mxCell id="LLsMIVY8CDGEfQFg2SyS-19" value="S3" style="shape=cylinder3;whiteSpace=wrap;html=1;boundedLbl=1;backgroundOutline=1;size=15;" vertex="1" parent="1">
          <mxGeometry x="270" y="189" width="120" height="146" as="geometry" />
        </mxCell>
        <mxCell id="LLsMIVY8CDGEfQFg2SyS-20" style="edgeStyle=orthogonalEdgeStyle;rounded=0;orthogonalLoop=1;jettySize=auto;html=1;entryX=0.5;entryY=0;entryDx=0;entryDy=0;entryPerimeter=0;exitX=0.5;exitY=1;exitDx=0;exitDy=0;" edge="1" parent="1" source="LLsMIVY8CDGEfQFg2SyS-25" target="LLsMIVY8CDGEfQFg2SyS-19">
          <mxGeometry relative="1" as="geometry" />
        </mxCell>
        <mxCell id="LLsMIVY8CDGEfQFg2SyS-23" value="image-storage" style="rounded=1;whiteSpace=wrap;html=1;" vertex="1" parent="1">
          <mxGeometry x="210" y="-6" width="200" height="95" as="geometry" />
        </mxCell>
        <mxCell id="LLsMIVY8CDGEfQFg2SyS-24" value="image-storage" style="rounded=1;whiteSpace=wrap;html=1;" vertex="1" parent="1">
          <mxGeometry x="220" y="4" width="200" height="95" as="geometry" />
        </mxCell>
        <mxCell id="LLsMIVY8CDGEfQFg2SyS-25" value="image-storage" style="rounded=1;whiteSpace=wrap;html=1;" vertex="1" parent="1">
          <mxGeometry x="230" y="14" width="200" height="95" as="geometry" />
        </mxCell>
        <mxCell id="LLsMIVY8CDGEfQFg2SyS-26" value="" style="rounded=0;whiteSpace=wrap;html=1;" vertex="1" parent="1">
          <mxGeometry x="1620" y="-710" width="400" height="150" as="geometry" />
        </mxCell>
        <mxCell id="LLsMIVY8CDGEfQFg2SyS-27" style="edgeStyle=orthogonalEdgeStyle;rounded=0;orthogonalLoop=1;jettySize=auto;html=1;" edge="1" parent="1" source="LLsMIVY8CDGEfQFg2SyS-28" target="LLsMIVY8CDGEfQFg2SyS-29">
          <mxGeometry relative="1" as="geometry" />
        </mxCell>
        <mxCell id="LLsMIVY8CDGEfQFg2SyS-31" style="edgeStyle=orthogonalEdgeStyle;rounded=0;orthogonalLoop=1;jettySize=auto;html=1;entryX=1;entryY=0;entryDx=0;entryDy=0;exitX=0.5;exitY=1;exitDx=0;exitDy=0;" edge="1" parent="1" source="LLsMIVY8CDGEfQFg2SyS-28" target="st85K4Z8vBVdBcALYrPj-171">
          <mxGeometry relative="1" as="geometry" />
        </mxCell>
        <mxCell id="LLsMIVY8CDGEfQFg2SyS-28" value="CDN" style="rounded=1;whiteSpace=wrap;html=1;" vertex="1" parent="1">
          <mxGeometry x="1678" y="-680" width="120" height="60" as="geometry" />
        </mxCell>
        <mxCell id="LLsMIVY8CDGEfQFg2SyS-29" value="КЭШ" style="shape=cylinder3;whiteSpace=wrap;html=1;boundedLbl=1;backgroundOutline=1;size=15;" vertex="1" parent="1">
          <mxGeometry x="1890" y="-690" width="60" height="80" as="geometry" />
        </mxCell>
        <mxCell id="LLsMIVY8CDGEfQFg2SyS-30" style="edgeStyle=orthogonalEdgeStyle;rounded=0;orthogonalLoop=1;jettySize=auto;html=1;" edge="1" parent="1" source="LLsMIVY8CDGEfQFg2SyS-3" target="LLsMIVY8CDGEfQFg2SyS-28">
          <mxGeometry relative="1" as="geometry" />
        </mxCell>
        <mxCell id="LLsMIVY8CDGEfQFg2SyS-32" value="&lt;h1 style=&quot;margin-top: 0px;&quot;&gt;По поводу CDN&lt;/h1&gt;&lt;p&gt;API сервиса pymongo-api довольно примитивно и как-то сложно представить, что для него нужен CDN&lt;/p&gt;&lt;p&gt;Поэтому я предположил, что мы захотели добавить, например, аватары для пользователей или по требованиям проекта (а у нас это онлайн-магазин) пользователи грузят много картинок, вот для этого статического контента уже можно использовать CDN.&lt;/p&gt;&lt;p&gt;Поэтому мы будем хранить картинки в хранилище, предназначенном для этого. Я знаю только про S3, поэтому нарисовал его.&lt;/p&gt;&lt;p&gt;Скорей всего доступ к этому хранилищу мы закроем сервисом, например, для безопасности или для дополнительной обработки загружаемых картинок (нам точно надо будет их сжимать для показа в результатах поиска, превью, показа на мобильных устройствах). Назвал я этот сервис image-storage.&lt;/p&gt;&lt;p&gt;Собственно на фронт с бэка прилетают урлы картинок (урлы настроенные на CDN), фронт их загружает, при этом идёт в CDN. CDN смотрит у себя в кеше, если не находит, то он знает куда идти за ними к нам. К нам он ходит также через api-gateway и дальше до сервиса image-storage, который уже возвращает контент.&lt;/p&gt;" style="text;html=1;whiteSpace=wrap;overflow=hidden;rounded=0;" vertex="1" parent="1">
          <mxGeometry x="2170" y="-720" width="650" height="290" as="geometry" />
        </mxCell>
        <mxCell id="LLsMIVY8CDGEfQFg2SyS-33" value="&lt;h1 style=&quot;margin-top: 0px;&quot;&gt;По поводу геораспределённости&lt;/h1&gt;&lt;p&gt;В приведённой схеме рассмотрена геораспределённость для CDN, при этом схема сильно упрощена, на ней отражены основные концепты.&lt;/p&gt;&lt;p&gt;В полной схеме все наши блоки (api-gateway, Consul, наши сервисы, БД) должны быть разнесены по разным ДЦ и на этапе разрешения имён в DNS нужно отдавать те IP от ДЦ, что находятся ближе к пользователям.&lt;/p&gt;&lt;p&gt;При разносе по разным ДЦ нужно решить множество вызовов. Один из главных и сложных вызовов, как мне кажется, - это синхронизация баз данных между ДЦ, для обеспечения консистентности данных. Но кажется, что это находится за рамками данного ДЗ.&lt;/p&gt;" style="text;html=1;whiteSpace=wrap;overflow=hidden;rounded=0;" vertex="1" parent="1">
          <mxGeometry x="2170" y="-360" width="660" height="230" as="geometry" />
        </mxCell>
      </root>
    </mxGraphModel>
  </diagram>
</mxfile>
